<mxfile host="app.diagrams.net" modified="2023-10-25T03:13:22.906Z" agent="Mozilla/5.0 (Macintosh; Intel Mac OS X 10_15_7) AppleWebKit/537.36 (KHTML, like Gecko) Chrome/118.0.0.0 Safari/537.36" etag="pKTT_Ewa2NsR_zveScLS" version="22.0.7" type="github">
  <diagram name="페이지-1" id="O406e4meM8akd1Ue_y1P">
    <mxGraphModel dx="1242" dy="720" grid="1" gridSize="10" guides="1" tooltips="1" connect="1" arrows="1" fold="1" page="1" pageScale="1" pageWidth="827" pageHeight="1169" math="0" shadow="0">
      <root>
        <mxCell id="0" />
        <mxCell id="1" parent="0" />
        <mxCell id="fx58zJcYHOfqycoBB55n-1" value="" style="whiteSpace=wrap;html=1;aspect=fixed;" vertex="1" parent="1">
          <mxGeometry x="50" y="30" width="230" height="230" as="geometry" />
        </mxCell>
        <mxCell id="fx58zJcYHOfqycoBB55n-2" value="" style="rounded=0;whiteSpace=wrap;html=1;" vertex="1" parent="1">
          <mxGeometry x="350" y="40" width="210" height="320" as="geometry" />
        </mxCell>
        <mxCell id="fx58zJcYHOfqycoBB55n-3" value="" style="rounded=1;whiteSpace=wrap;html=1;" vertex="1" parent="1">
          <mxGeometry x="360" y="290" width="190" height="60" as="geometry" />
        </mxCell>
        <mxCell id="fx58zJcYHOfqycoBB55n-4" value="" style="rounded=0;whiteSpace=wrap;html=1;" vertex="1" parent="1">
          <mxGeometry x="20" y="400" width="210" height="320" as="geometry" />
        </mxCell>
        <mxCell id="fx58zJcYHOfqycoBB55n-5" value="" style="rounded=1;whiteSpace=wrap;html=1;" vertex="1" parent="1">
          <mxGeometry x="30" y="650" width="190" height="60" as="geometry" />
        </mxCell>
        <mxCell id="fx58zJcYHOfqycoBB55n-6" value="" style="rounded=0;whiteSpace=wrap;html=1;" vertex="1" parent="1">
          <mxGeometry x="370" y="60" width="210" height="320" as="geometry" />
        </mxCell>
        <mxCell id="fx58zJcYHOfqycoBB55n-7" value="" style="rounded=1;whiteSpace=wrap;html=1;" vertex="1" parent="1">
          <mxGeometry x="380" y="310" width="190" height="60" as="geometry" />
        </mxCell>
      </root>
    </mxGraphModel>
  </diagram>
</mxfile>
